<svg id="visual" viewBox="0 0 900 600" width="900" height="600" xmlns="http://www.w3.org/2000/svg" xmlns:xlink="http://www.w3.org/1999/xlink" version="1.1"><rect x="0" y="0" width="900" height="600" fill="#15181b"></rect><path d="M0 103L21.5 100.8C43 98.7 86 94.3 128.8 95C171.7 95.7 214.3 101.3 257.2 102.8C300 104.3 343 101.7 385.8 95.7C428.7 89.7 471.3 80.3 514.2 81.5C557 82.7 600 94.3 642.8 98.2C685.7 102 728.3 98 771.2 94.2C814 90.3 857 86.7 878.5 84.8L900 83L900 0L878.5 0C857 0 814 0 771.2 0C728.3 0 685.7 0 642.8 0C600 0 557 0 514.2 0C471.3 0 428.7 0 385.8 0C343 0 300 0 257.2 0C214.3 0 171.7 0 128.8 0C86 0 43 0 21.5 0L0 0Z" fill="#000810" stroke-linecap="round" stroke-linejoin="miter"></path></svg>